<?xml version="1.0" encoding="UTF-8" standalone="no" ?>
<!DOCTYPE svg PUBLIC "-//W3C//DTD SVG 1.1//EN" "http://www.w3.org/Graphics/SVG/1.1/DTD/svg11.dtd">
<svg xmlns="http://www.w3.org/2000/svg" xmlns:xlink="http://www.w3.org/1999/xlink" version="1.1" width="1080" height="1080" viewBox="0 0 1080 1080" xml:space="preserve">
<desc>Created with Fabric.js 5.2.4</desc>
<defs>
</defs>
<g transform="matrix(1 0 0 1 540 540)" id="e88f6ed1-292d-40a8-a6f4-6872370da605"  >
<rect style="stroke: none; stroke-width: 1; stroke-dasharray: none; stroke-linecap: butt; stroke-dashoffset: 0; stroke-linejoin: miter; stroke-miterlimit: 4; fill: rgb(255,255,255); fill-rule: nonzero; opacity: 1;" vector-effect="non-scaling-stroke"  x="-540" y="-540" rx="0" ry="0" width="1080" height="1080" />
</g>
<g transform="matrix(1 0 0 1 540 540)" id="89cd03eb-aba2-4795-8d1d-86c4c1c613e6"  >
</g>
<g transform="matrix(6.09 0 0 5.76 540 540)"  >
<g style="" vector-effect="non-scaling-stroke"   >
		<g transform="matrix(1 0 0 1 0.02 -12.66)"  >
<path style="stroke: none; stroke-width: 1; stroke-dasharray: none; stroke-linecap: butt; stroke-dashoffset: 0; stroke-linejoin: miter; stroke-miterlimit: 4; fill: rgb(255,160,0); fill-rule: nonzero; opacity: 1;" vector-effect="non-scaling-stroke"  transform=" translate(-47.71, -52.87)" d="M 0.05 105.75 L 16.18 2.52 C 16.38 1.25 17.36 0.26000000000000023 18.62 0.040000000000000036 C 19.880000000000003 -0.18000000000000016 21.14 0.44000000000000006 21.75 1.57 L 38.43 32.69 L 45.08 20.029999999999998 C 45.589999999999996 19.049999999999997 46.61 18.439999999999998 47.72 18.439999999999998 C 48.83 18.439999999999998 49.839999999999996 19.049999999999997 50.36 20.029999999999998 L 95.38 105.75 L 0.05 105.75 L 0.05 105.75 z" stroke-linecap="round" />
</g>
		<g transform="matrix(1 0 0 1 -19.78 3.69)"  >
<path style="stroke: none; stroke-width: 1; stroke-dasharray: none; stroke-linecap: butt; stroke-dashoffset: 0; stroke-linejoin: miter; stroke-miterlimit: 4; fill: rgb(245,124,0); fill-rule: nonzero; opacity: 1;" vector-effect="non-scaling-stroke"  transform=" translate(-27.92, -69.22)" d="M 55.78 65.54 L 38.43 32.68 L 0.05 105.75 L 55.78 65.54 z" stroke-linecap="round" />
</g>
		<g transform="matrix(1 0 0 1 0.02 13.41)"  >
<path style="stroke: none; stroke-width: 1; stroke-dasharray: none; stroke-linecap: butt; stroke-dashoffset: 0; stroke-linejoin: miter; stroke-miterlimit: 4; fill: rgb(255,202,40); fill-rule: nonzero; opacity: 1;" vector-effect="non-scaling-stroke"  transform=" translate(-47.72, -78.94)" d="M 95.39 105.75 L 83.03 29.29 C 82.84 28.189999999999998 82.06 27.29 81 26.95 C 79.94 26.61 78.78 26.89 77.99 27.68 L 0.05 105.75 L 43.169999999999995 129.93 C 45.879999999999995 131.44 49.17999999999999 131.44 51.879999999999995 129.93 L 95.39 105.75 L 95.39 105.75 z" stroke-linecap="round" />
</g>
		<g transform="matrix(1 0 0 1 -0.01 -12.52)"  >
<path style="stroke: none; stroke-width: 1; stroke-dasharray: none; stroke-linecap: butt; stroke-dashoffset: 0; stroke-linejoin: miter; stroke-miterlimit: 4; fill: rgb(255,255,255); fill-opacity: 0.2; fill-rule: nonzero; opacity: 1;" vector-effect="non-scaling-stroke"  transform=" translate(-47.69, -53.01)" d="M 83.03 29.29 C 82.84 28.189999999999998 82.06 27.29 81 26.95 C 79.94 26.61 78.78 26.89 77.99 27.68 L 62.52 43.19 L 50.36 20.03 C 49.85 19.05 48.83 18.44 47.72 18.44 C 46.61 18.44 45.6 19.05 45.08 20.03 L 38.43 32.69 L 21.75 1.57 C 21.15 0.44000000000000017 19.88 -0.17999999999999994 18.62 0.040000000000000036 C 17.360000000000003 0.26 16.37 1.26 16.18 2.52 L 0.05 105.75 L 0 105.75 L 0.05 105.81 L 0.47 106.02 L 77.96 28.439999999999998 C 78.75 27.65 79.91 27.36 80.97999999999999 27.7 C 82.04999999999998 28.04 82.82999999999998 28.939999999999998 83.00999999999999 30.05 L 95.25999999999999 105.82 L 95.38 105.75 L 83.03 29.29 L 83.03 29.29 z M 0.19 105.61 L 16.18 3.26 C 16.37 1.9899999999999998 17.36 0.9899999999999998 18.62 0.7799999999999998 C 19.880000000000003 0.5699999999999998 21.14 1.1799999999999997 21.75 2.3099999999999996 L 38.43 33.43 L 45.08 20.77 C 45.589999999999996 19.79 46.61 19.18 47.72 19.18 C 48.83 19.18 49.839999999999996 19.79 50.36 20.77 L 62.28 43.43 L 0.19 105.61 L 0.19 105.61 z" stroke-linecap="round" />
</g>
		<g transform="matrix(1 0 0 1 0.03 52.53)"  >
<path style="stroke: none; stroke-width: 1; stroke-dasharray: none; stroke-linecap: butt; stroke-dashoffset: 0; stroke-linejoin: miter; stroke-miterlimit: 4; fill: rgb(165,39,20); fill-rule: nonzero; opacity: 0.2;" vector-effect="non-scaling-stroke"  transform=" translate(-47.73, -118.06)" d="M 51.89 129.2 C 49.18 130.70999999999998 45.88 130.70999999999998 43.18 129.2 L 0.16 105.09 L 0.06 105.75 L 43.18 129.93 C 45.89 131.44 49.19 131.44 51.89 129.93 L 95.39 105.75 L 95.28 105.06 L 51.89 129.2 L 51.89 129.2 z" stroke-linecap="round" />
</g>
		<g transform="matrix(1 0 0 1 0.02 0)" id="b"  >
<linearGradient id="SVGID_b_1__3" gradientUnits="userSpaceOnUse" gradientTransform="matrix(95 0 0 -131 23127.44 45253.93)"  x1="-243.4794" y1="345.2798" x2="-242.4362" y2="344.521">
<stop offset="0%" style="stop-color:rgb(255,255,255);stop-opacity: 0.1"/>
<stop offset="14.000000000000002%" style="stop-color:rgb(255,255,255);stop-opacity: 0.08"/>
<stop offset="61%" style="stop-color:rgb(255,255,255);stop-opacity: 0.02"/>
<stop offset="100%" style="stop-color:rgb(255,255,255);stop-opacity: 0"/>
</linearGradient>
<path style="stroke: none; stroke-width: 1; stroke-dasharray: none; stroke-linecap: butt; stroke-dashoffset: 0; stroke-linejoin: miter; stroke-miterlimit: 4; fill: url(#SVGID_b_1__3); fill-rule: nonzero; opacity: 1;" vector-effect="non-scaling-stroke"  transform=" translate(-47.72, -65.53)" d="M 82.91 29.3 C 82.72 28.2 81.94 27.3 80.89 26.96 C 79.83 26.62 78.68 26.900000000000002 77.89 27.69 L 62.47 43.2 L 50.35 20.05 C 49.84 19.07 48.82 18.46 47.72 18.46 C 46.62 18.46 45.61 19.07 45.089999999999996 20.05 L 38.459999999999994 32.71 L 21.84 1.6 C 21.24 0.4700000000000002 19.98 -0.1499999999999999 18.72 0.07000000000000006 C 17.459999999999997 0.29000000000000004 16.479999999999997 1.29 16.29 2.55 L 0.22 105.73 L 43.19 129.9 C 45.89 131.41 49.18 131.41 51.87 129.9 L 95.21000000000001 105.73 L 82.91 29.3 L 82.91 29.3 z" stroke-linecap="round" />
</g>
</g>
</g>
<g transform="matrix(NaN NaN NaN NaN 0 0)"  >
<g style=""   >
</g>
</g>
<g transform="matrix(8.25 0 0 8.25 764.81 754.28)"  >
<g style="" vector-effect="non-scaling-stroke"   >
		<g transform="matrix(1 0 0 1 0 0)"  >
<circle style="stroke: none; stroke-width: 1; stroke-dasharray: none; stroke-linecap: butt; stroke-dashoffset: 0; stroke-linejoin: miter; stroke-miterlimit: 4; fill: rgb(255,138,101); fill-rule: nonzero; opacity: 1;" vector-effect="non-scaling-stroke"  cx="0" cy="0" r="20" />
</g>
		<g transform="matrix(1 0 0 1 -0.5 -1.5)"  >
<path style="stroke: none; stroke-width: 1; stroke-dasharray: none; stroke-linecap: butt; stroke-dashoffset: 0; stroke-linejoin: miter; stroke-miterlimit: 4; fill: rgb(255,255,255); fill-rule: nonzero; opacity: 1;" vector-effect="non-scaling-stroke"  transform=" translate(-23.5, -22.5)" d="M 28 21 L 32 18 L 28 15 L 28 17 L 20 17 C 19.448 17 19 17.447 19 18 L 19 28 L 15 28 L 15 30 L 20 30 C 20.552 30 21 29.553 21 29 L 21 19 L 28 19 L 28 21 z" stroke-linecap="round" />
</g>
		<g transform="matrix(1 0 0 1 3.5 5)"  >
<polygon style="stroke: none; stroke-width: 1; stroke-dasharray: none; stroke-linecap: butt; stroke-dashoffset: 0; stroke-linejoin: miter; stroke-miterlimit: 4; fill: rgb(255,255,255); fill-rule: nonzero; opacity: 1;" vector-effect="non-scaling-stroke"  points="0.5,-1 -4.5,-1 -4.5,1 0.5,1 0.5,3 4.5,0 0.5,-3 " />
</g>
</g>
</g>
<g transform="matrix(NaN NaN NaN NaN 0 0)"  >
<g style=""   >
</g>
</g>
<g transform="matrix(11.86 0 0 11.86 470.78 745.14)" id="c07ebad3-1627-4890-9b1c-17b424fe29df"  >
<path style="stroke: rgb(0,0,0); stroke-width: 0; stroke-dasharray: none; stroke-linecap: butt; stroke-dashoffset: 0; stroke-linejoin: miter; stroke-miterlimit: 4; fill: rgb(27,31,35); fill-rule: nonzero; opacity: 1;" vector-effect="non-scaling-stroke"  transform=" translate(-8, -7.8)" d="M 8 0 C 3.58 0 0 3.58 0 8 C 0 11.54 2.29 14.53 5.47 15.59 C 5.87 15.66 6.02 15.42 6.02 15.21 C 6.02 15.02 6.01 14.39 6.01 13.72 C 4 14.09 3.48 13.23 3.32 12.78 C 3.23 12.55 2.84 11.84 2.5 11.65 C 2.22 11.5 1.82 11.13 2.49 11.12 C 3.12 11.11 3.57 11.7 3.72 11.94 C 4.44 13.15 5.59 12.81 6.05 12.6 C 6.12 12.08 6.33 11.73 6.56 11.53 C 4.78 11.33 2.92 10.64 2.92 7.58 C 2.92 6.71 3.23 5.99 3.74 5.43 C 3.66 5.23 3.38 4.41 3.82 3.31 C 3.82 3.31 4.49 3.1 6.02 4.13 C 6.66 3.95 7.34 3.86 8.02 3.86 C 8.7 3.86 9.38 3.95 10.02 4.13 C 11.55 3.09 12.22 3.31 12.22 3.31 C 12.66 4.41 12.38 5.23 12.3 5.43 C 12.81 5.99 13.12 6.7 13.12 7.58 C 13.12 10.65 11.25 11.33 9.47 11.53 C 9.76 11.78 10.01 12.26 10.01 13.01 C 10.01 14.08 10 14.94 10 15.21 C 10 15.42 10.15 15.67 10.55 15.59 C 13.71 14.53 16 11.53 16 8 C 16 3.58 12.42 0 8 0 Z" stroke-linecap="round" />
</g>
</svg>